<?xml version="1.0" encoding="utf-8"?>
<!-- Generator: Adobe Illustrator 21.0.0, SVG Export Plug-In . SVG Version: 6.00 Build 0)  -->
<svg version="1.1" id="Layer_1" xmlns="http://www.w3.org/2000/svg" xmlns:xlink="http://www.w3.org/1999/xlink" x="0px" y="0px"
	 viewBox="0 0 487.4 1212.1" style="enable-background:new 0 0 487.4 1212.1;" xml:space="preserve">
<style type="text/css">
	.st0{fill:#F21414;}
	.st1{font-family:'PrestigeEliteStd-Bd';}
	.st2{font-size:9px;}
	.st3{fill:#0F0FF2;}
	.st4{font-family:'Brown-Bold';}
	.st5{font-size:5px;}
	.st6{fill:#F20C0C;}
	.st7{fill:#241F20;}
	.st8{font-family:'jeanne-Regular';}
	.st9{font-size:12px;}
	.st10{font-family:'MyriadPro-Regular';}
	.st11{fill:#1823ED;}
	.st12{clip-path:url(#SVGID_2_);}
	.st13{font-size:11.0448px;}
</style>
<title>dialogue-ok</title>
<text transform="matrix(1 0 0 1 115.1 160.38)" class="st0 st1 st2">Ce serait pas mal que je puisse lui parler avant</text>
<text transform="matrix(1 0 0 1 206.9 171.18)" class="st0 st1 st2">de m’attaquer au premier andro.</text>
<text transform="matrix(1 0 0 1 218.3 32.93)" class="st3 st4 st5">5</text>
<text transform="matrix(1 0 0 1 221.12 32.93)" class="st3 st4 st5">4</text>
<text transform="matrix(1 0 0 1 224.55 32.93)" class="st3 st4 st5">/</text>
<text transform="matrix(1 0 0 1 227.12 32.93)" class="st3 st4 st5">1</text>
<text transform="matrix(1 0 0 1 229.24 32.93)" class="st3 st4 st5">3</text>
<text transform="matrix(1 0 0 1 232.26 32.93)" class="st3 st4 st5">/</text>
<text transform="matrix(1 0 0 1 234.78 32.93)" class="st3 st4 st5">2</text>
<text transform="matrix(1 0 0 1 237.48 32.93)" class="st3 st4 st5">0</text>
<text transform="matrix(1 0 0 1 240.48 32.93)" class="st3 st4 st5">6</text>
<text transform="matrix(1 0 0 1 243.39 32.93)" class="st3 st4 st5">5</text>
<circle class="st6" cx="65.7" cy="375.7" r="3.7"/>
<text transform="matrix(1 0 0 1 145.29 638.2)" class="st7 st8 st9">LE NEXUS</text>
<text transform="matrix(1 0 0 1 202.89 638.2)" class="st7 st1 st9">-6</text>
<text transform="matrix(1 0 0 1 217.29 638.2)" class="st7 st8 st9"> EST D</text>
<text transform="matrix(1 0 0 1 260.49 638.2)" class="st7 st10 st9">i</text>
<text transform="matrix(1 0 0 1 263.3 638.2)" class="st7 st8 st9">FFERENT</text>
<text transform="matrix(1 0 0 1 313.7 638.2)" class="st7 st1 st9">.</text>
<text transform="matrix(1 0 0 1 149.5 64.48)" class="st0 st1 st2">Vous rentrez bougrement tôt......</text>
<text transform="matrix(1 0 0 1 218.3 95.68)" class="st11 st1 st2">J’ai ce que vous m’avez demandé</text>
<text transform="matrix(1 0 0 1 149.5 120.88)" class="st11 st1 st2">Comment va Dave ?</text>
<text transform="matrix(1 0 0 1 110.37 230.32)" class="st11 st1 st2">Polokov se fait passer pour un spécial, </text>
<text transform="matrix(1 0 0 1 110.37 241.12)" class="st11 st1 st2">un débile très dégradé. </text>
<text transform="matrix(1 0 0 1 110.37 251.92)" class="st11 st1 st2">C’est comme ça que Dave l’a eu dans le baba ;</text>
<text transform="matrix(1 0 0 1 140.04 284.32)" class="st11 st1 st2"> Polokov se comporte tellement comme une tête </text>
<text transform="matrix(1 0 0 1 123.84 295.12)" class="st11 st1 st2">d’épingle que Dave a fini par oublier. Vous êtes </text>
<text transform="matrix(1 0 0 1 123.84 305.92)" class="st11 st1 st2">sûr du Voigt-Kampff, maintenant? Absolument sûr, </text>
<text transform="matrix(1 0 0 1 183.24 316.72)" class="st11 st1 st2">après ce qui s’est passé à Seattle ?…</text>
<text transform="matrix(1 0 0 1 223.97 360.13)" class="st3 st4 st5">5</text>
<text transform="matrix(1 0 0 1 226.79 360.13)" class="st3 st4 st5">4</text>
<text transform="matrix(1 0 0 1 230.22 360.13)" class="st3 st4 st5">/</text>
<text transform="matrix(1 0 0 1 232.79 360.13)" class="st3 st4 st5">1</text>
<text transform="matrix(1 0 0 1 234.91 360.13)" class="st3 st4 st5">3</text>
<text transform="matrix(1 0 0 1 237.93 360.13)" class="st3 st4 st5">/</text>
<text transform="matrix(1 0 0 1 240.45 360.13)" class="st3 st4 st5">2</text>
<text transform="matrix(1 0 0 1 243.15 360.13)" class="st3 st4 st5">0</text>
<text transform="matrix(1 0 0 1 246.15 360.13)" class="st3 st4 st5">6</text>
<text transform="matrix(1 0 0 1 249.06 360.13)" class="st3 st4 st5">5</text>
<text transform="matrix(1 0 0 1 270.16 412.88)" class="st11 st1 st2">Comment va Dave ?</text>
<text transform="matrix(1 0 0 1 97.28 457.5)" class="st0 st1 st2">Polokov se comporte tellement</text>
<text transform="matrix(1 0 0 1 97.28 475.23)" class="st0 st1 st2">comme une tête d’épingle que Dave</text>
<text transform="matrix(1 0 0 1 97.28 493.3)" class="st0 st1 st2">a fini par l’oublier.</text>
<text transform="matrix(1 0 0 1 155.8 546.24)" class="st11 st1 st2">Bon, je vous crois. Mais nous ne pouvons pas nous </text>
<text transform="matrix(1 0 0 1 274.6 557.04)" class="st11 st1 st2">permettre une seule bavure.</text>
<g>
	<g>
		<defs>
			<rect id="SVGID_1_" x="78.2" y="697.4" width="105" height="70.8"/>
		</defs>
		<clipPath id="SVGID_2_">
			<use xlink:href="#SVGID_1_"  style="overflow:visible;"/>
		</clipPath>
		<g transform="matrix(1 0 0 1 0 0)" class="st12">
			
				<image style="overflow:visible;enable-background:new    ;" width="266" height="181" xlink:href="1B74B7A44665A17F.png"  transform="matrix(0.3947 0 0 0.3911 78.1987 697.4037)">
			</image>
		</g>
	</g>
</g>
<text transform="matrix(1 0 0 1 227.1201 726.1497)" class="st7 st1 st13">Il me semble que ça se décompose,</text>
<text transform="matrix(1 0 0 1 227.1201 739.4496)" class="st7 st1 st13">les cadavres, non ?</text>
<g>
	<path class="st7" d="M202.6,967.7c0-12.4,8.6-23.5,29.1-26.1c-17.1-1.7-25.7-12.4-25.7-22.7c0-16.3,15-25.3,31.2-25.3
		s31.2,9,31.2,25.3c0,10.3-6.4,19.7-24.8,22.7c20.1,2.6,28.7,13.7,28.7,26.1c0,17.5-16.3,28.3-35.1,28.3
		C218,996,202.6,985.3,202.6,967.7z M257.8,969.5c0-15-4.3-27.4-20.5-27.4c-15.4,0-20.5,12.4-20.5,27.4c0,14.6,6.8,26.1,20.1,26.1
		S257.8,984,257.8,969.5z M254.8,917.2c0-15-4.7-23.1-17.5-23.1s-17.1,8.1-17.1,23.1c0,17.5,3.9,24,17.1,24
		C250.5,941.2,254.8,934.8,254.8,917.2z"/>
</g>
</svg>
