<?xml version="1.0" encoding="utf-8"?>
<!-- Generator: Adobe Illustrator 21.0.0, SVG Export Plug-In . SVG Version: 6.00 Build 0)  -->
<svg version="1.1" id="Layer_1" xmlns="http://www.w3.org/2000/svg" xmlns:xlink="http://www.w3.org/1999/xlink" x="0px" y="0px"
	 viewBox="0 0 292.1 234.2" style="enable-background:new 0 0 292.1 234.2;" xml:space="preserve">
<style type="text/css">
	.st0{font-family:'PrestigeEliteStd-Bd';}
	.st1{font-size:12px;}
	.st2{font-family:'OdeonCondensedRegular';}
	.st3{font-family:'Brown-Bold';}
	.st4{font-size:10px;}
	.st5{fill:#302F2F;}
	.st6{font-family:'MinionPro-Regular';}
	.st7{font-size:17px;}
	.st8{font-family:'Banco';}
</style>
<text transform="matrix(1 0 0 1.02 162.2246 21.5895)" class="st0 st1">C’est pas un </text>
<text transform="matrix(1 0 0 1.02 255.8251 21.5895)" class="st2 st1">b</text>
<text transform="matrix(1 0 0 1.02 259.1249 21.5895)" class="st2 st1">oulot</text>
<text transform="matrix(1 0 0 1.02 194.7207 35.9831)" class="st0 st1">réservé aux </text>
<text transform="matrix(1 0 0 1.02 221.3681 47.9889)"><tspan x="0" y="0" class="st3 st4">SP</tspan><tspan x="11.3" y="0" class="st3 st4">E</tspan><tspan x="16.7" y="0" class="st3 st4">CI</tspan><tspan x="26.8" y="0" class="st3 st4">A</tspan><tspan x="33.4" y="0" class="st3 st4">U</tspan><tspan x="40.8" y="0" class="st3 st4">X?</tspan></text>
<text transform="matrix(1 0 0 1 8.6088 94.4958)" class="st5 st0 st1">Polokov se fait passer pour un</text>
<text transform="matrix(1 0 0 1 224.6113 94.4958)" class="st5 st6 st1"> </text>
<text transform="matrix(1 0 0 1 8.6088 114.8952)"><tspan x="0" y="0" class="st5 st3 st1">s</tspan><tspan x="5.5" y="0" class="st5 st3 st1">pé</tspan><tspan x="19.6" y="0" class="st5 st3 st1">cial</tspan></text>
<text transform="matrix(1 0 0 1 48.749 114.8952)" class="st5 st6 st1">, </text>
<text transform="matrix(1 0 0 1 54.2089 114.8952)" class="st5 st0 st1">un</text>
<text transform="matrix(1 0 0 1 68.6079 114.8952)" class="st5 st6 st7"> </text>
<text transform="matrix(1 0 0 1 72.4672 114.8952)" class="st5 st8 st7">debile tres degrade</text>
<text transform="matrix(1 0 0 1 5.6088 129.2956)" class="st5 st0 st1">C’est comme ça que Dave l’a eu </text>
<text transform="matrix(1 0 0 1 5.6088 149.695)" class="st5 st0 st1">dans le </text>
<text transform="matrix(1 0 0 1 63.208 149.695)" class="st5 st8 st7">baba........</text>
<text transform="matrix(1 0 0 1 5.6088 178.4958)" class="st0 st1">Polokov se comporte tellement </text>
<text transform="matrix(1 0 0 1 5.6088 192.8952)" class="st0 st1">comme une tête d’épingle que Dave </text>
<text transform="matrix(1 0 0 1 5.6088 207.2956)" class="st0 st1">a fini par l’oublier.</text>
</svg>
